<mxfile host="65bd71144e">
    <diagram id="sdiaoh0fIcfcbV2DhqSA" name="Page-1">
        <mxGraphModel dx="511" dy="361" grid="1" gridSize="10" guides="1" tooltips="1" connect="1" arrows="1" fold="1" page="1" pageScale="1" pageWidth="850" pageHeight="1100" math="0" shadow="0">
            <root>
                <mxCell id="0"/>
                <mxCell id="1" parent="0"/>
                <mxCell id="10" value="" style="group" vertex="1" connectable="0" parent="1">
                    <mxGeometry x="50" y="90" width="64" height="40" as="geometry"/>
                </mxCell>
                <mxCell id="11" value="" style="group;shadow=0;" vertex="1" connectable="0" parent="10">
                    <mxGeometry width="64" height="20" as="geometry"/>
                </mxCell>
                <mxCell id="12" value="" style="shape=cylinder3;whiteSpace=wrap;html=1;boundedLbl=1;backgroundOutline=1;size=3.16668701171875;rotation=90;fillColor=#f5f5f5;fontColor=#333333;strokeColor=#666666;shadow=0;" vertex="1" parent="11">
                    <mxGeometry width="20" height="20" as="geometry"/>
                </mxCell>
                <mxCell id="13" value="" style="shape=cylinder3;whiteSpace=wrap;html=1;boundedLbl=1;backgroundOutline=1;size=3.16668701171875;rotation=90;shadow=0;" vertex="1" parent="11">
                    <mxGeometry x="13" width="20" height="20" as="geometry"/>
                </mxCell>
                <mxCell id="14" value="" style="shape=cylinder3;whiteSpace=wrap;html=1;boundedLbl=1;backgroundOutline=1;size=3.16668701171875;rotation=90;fillColor=#f5f5f5;fontColor=#333333;strokeColor=#666666;shadow=0;" vertex="1" parent="11">
                    <mxGeometry x="27" width="20" height="20" as="geometry"/>
                </mxCell>
                <mxCell id="15" value="" style="shape=cylinder3;whiteSpace=wrap;html=1;boundedLbl=1;backgroundOutline=1;size=3.16668701171875;rotation=90;shadow=0;" vertex="1" parent="11">
                    <mxGeometry x="41" width="20" height="20" as="geometry"/>
                </mxCell>
                <mxCell id="16" value="" style="shape=cylinder3;whiteSpace=wrap;html=1;boundedLbl=1;backgroundOutline=1;size=3.16668701171875;rotation=90;shadow=0;" vertex="1" parent="11">
                    <mxGeometry x="49" y="5" width="20" height="10" as="geometry"/>
                </mxCell>
                <mxCell id="17" value="items topic" style="text;html=1;align=center;verticalAlign=middle;resizable=0;points=[];autosize=1;strokeColor=none;fillColor=none;fontSize=9;shadow=0;" vertex="1" parent="10">
                    <mxGeometry y="20" width="60" height="20" as="geometry"/>
                </mxCell>
                <mxCell id="18" value="" style="group" vertex="1" connectable="0" parent="1">
                    <mxGeometry x="393" y="90" width="64" height="40" as="geometry"/>
                </mxCell>
                <mxCell id="19" value="" style="group;shadow=0;" vertex="1" connectable="0" parent="18">
                    <mxGeometry width="64" height="20" as="geometry"/>
                </mxCell>
                <mxCell id="20" value="" style="shape=cylinder3;whiteSpace=wrap;html=1;boundedLbl=1;backgroundOutline=1;size=3.16668701171875;rotation=90;fillColor=#f5f5f5;fontColor=#333333;strokeColor=#666666;shadow=0;" vertex="1" parent="19">
                    <mxGeometry width="20" height="20" as="geometry"/>
                </mxCell>
                <mxCell id="21" value="" style="shape=cylinder3;whiteSpace=wrap;html=1;boundedLbl=1;backgroundOutline=1;size=3.16668701171875;rotation=90;shadow=0;" vertex="1" parent="19">
                    <mxGeometry x="13" width="20" height="20" as="geometry"/>
                </mxCell>
                <mxCell id="22" value="" style="shape=cylinder3;whiteSpace=wrap;html=1;boundedLbl=1;backgroundOutline=1;size=3.16668701171875;rotation=90;fillColor=#f5f5f5;fontColor=#333333;strokeColor=#666666;shadow=0;" vertex="1" parent="19">
                    <mxGeometry x="27" width="20" height="20" as="geometry"/>
                </mxCell>
                <mxCell id="23" value="" style="shape=cylinder3;whiteSpace=wrap;html=1;boundedLbl=1;backgroundOutline=1;size=3.16668701171875;rotation=90;shadow=0;" vertex="1" parent="19">
                    <mxGeometry x="41" width="20" height="20" as="geometry"/>
                </mxCell>
                <mxCell id="24" value="" style="shape=cylinder3;whiteSpace=wrap;html=1;boundedLbl=1;backgroundOutline=1;size=3.16668701171875;rotation=90;shadow=0;" vertex="1" parent="19">
                    <mxGeometry x="49" y="5" width="20" height="10" as="geometry"/>
                </mxCell>
                <mxCell id="25" value="items topic" style="text;html=1;align=center;verticalAlign=middle;resizable=0;points=[];autosize=1;strokeColor=none;fillColor=none;fontSize=9;shadow=0;" vertex="1" parent="18">
                    <mxGeometry y="20" width="60" height="20" as="geometry"/>
                </mxCell>
                <mxCell id="29" style="edgeStyle=orthogonalEdgeStyle;html=1;entryX=0;entryY=0.75;entryDx=0;entryDy=0;" edge="1" parent="1" source="26" target="28">
                    <mxGeometry relative="1" as="geometry"/>
                </mxCell>
                <mxCell id="26" value="kstream" style="rounded=0;whiteSpace=wrap;html=1;shadow=0;" vertex="1" parent="1">
                    <mxGeometry x="114" y="150" width="96" height="20" as="geometry"/>
                </mxCell>
                <mxCell id="27" style="edgeStyle=orthogonalEdgeStyle;html=1;entryX=0;entryY=0.75;entryDx=0;entryDy=0;" edge="1" parent="1" source="16" target="26">
                    <mxGeometry relative="1" as="geometry"/>
                </mxCell>
                <mxCell id="37" style="edgeStyle=orthogonalEdgeStyle;html=1;entryX=0;entryY=0.5;entryDx=0;entryDy=0;" edge="1" parent="1" source="28" target="33">
                    <mxGeometry relative="1" as="geometry"/>
                </mxCell>
                <mxCell id="28" value="kstream" style="rounded=0;whiteSpace=wrap;html=1;shadow=0;" vertex="1" parent="1">
                    <mxGeometry x="150" y="190" width="96" height="20" as="geometry"/>
                </mxCell>
                <mxCell id="30" value="&amp;lt;k,V&amp;gt;" style="text;html=1;align=center;verticalAlign=middle;resizable=0;points=[];autosize=1;strokeColor=none;fillColor=none;" vertex="1" parent="1">
                    <mxGeometry x="20" y="60" width="50" height="20" as="geometry"/>
                </mxCell>
                <mxCell id="31" value="&amp;lt;k,V&amp;gt;" style="text;html=1;align=center;verticalAlign=middle;resizable=0;points=[];autosize=1;strokeColor=none;fillColor=none;" vertex="1" parent="1">
                    <mxGeometry x="57" y="60" width="50" height="20" as="geometry"/>
                </mxCell>
                <mxCell id="32" value="&amp;lt;k,V&amp;gt;" style="text;html=1;align=center;verticalAlign=middle;resizable=0;points=[];autosize=1;strokeColor=none;fillColor=none;" vertex="1" parent="1">
                    <mxGeometry x="100" y="60" width="50" height="20" as="geometry"/>
                </mxCell>
                <mxCell id="38" style="edgeStyle=orthogonalEdgeStyle;html=1;entryX=0.5;entryY=1;entryDx=0;entryDy=0;" edge="1" parent="1" source="33" target="36">
                    <mxGeometry relative="1" as="geometry"/>
                </mxCell>
                <mxCell id="33" value="ktable" style="rounded=0;whiteSpace=wrap;html=1;shadow=0;verticalAlign=top;" vertex="1" parent="1">
                    <mxGeometry x="210" y="230" width="90" height="70" as="geometry"/>
                </mxCell>
                <mxCell id="34" value="&amp;lt;k,V&amp;gt;" style="text;html=1;align=center;verticalAlign=middle;resizable=0;points=[];autosize=1;strokeColor=none;fillColor=none;" vertex="1" parent="1">
                    <mxGeometry x="230" y="255" width="50" height="20" as="geometry"/>
                </mxCell>
                <mxCell id="35" value="&amp;lt;k,V&amp;gt;" style="text;html=1;align=center;verticalAlign=middle;resizable=0;points=[];autosize=1;strokeColor=none;fillColor=none;" vertex="1" parent="1">
                    <mxGeometry x="230" y="280" width="50" height="20" as="geometry"/>
                </mxCell>
                <mxCell id="39" style="edgeStyle=orthogonalEdgeStyle;html=1;exitX=0.5;exitY=0;exitDx=0;exitDy=0;entryX=0.5;entryY=1;entryDx=0;entryDy=0;entryPerimeter=0;" edge="1" parent="1" source="36" target="20">
                    <mxGeometry relative="1" as="geometry"/>
                </mxCell>
                <mxCell id="36" value="kstream" style="rounded=0;whiteSpace=wrap;html=1;shadow=0;" vertex="1" parent="1">
                    <mxGeometry x="320" y="190" width="96" height="20" as="geometry"/>
                </mxCell>
            </root>
        </mxGraphModel>
    </diagram>
</mxfile>